<svg width="1920" height="1074" viewBox="0 0 1920 1074" fill="none" xmlns="http://www.w3.org/2000/svg">
<path fill-rule="evenodd" clip-rule="evenodd" d="M58.3081 0.433027C49.3575 1.31125 31.1676 4.01211 25.4515 5.31234L20.5361 6.42994L21.0082 77.1043C22.0008 225.59 22.2355 240.31 23.7095 246.369C28.9946 268.103 48.1615 283.477 69.9727 283.477C82.6748 283.477 91.9738 280.238 101.487 272.502C113.589 262.662 119.602 249.797 119.602 233.748C119.602 224.925 118.272 218.898 114.6 211.08C108.151 197.351 97.5356 188.957 81.028 184.529L74.8064 182.861V167.42C74.8064 151.042 75.4954 144.71 77.4387 143.231C79.3535 141.774 82.6485 142.151 91.9774 144.9C110.094 150.236 122.323 157.373 134.221 169.558C151.331 187.078 160.132 208.843 160.132 233.636C160.132 261.471 149.248 285.209 128.122 303.452C121.399 309.258 115.624 312.86 106.803 316.75C92.2063 323.186 83.5878 325.118 69.8291 325.037C53.9216 324.944 46.3555 323.074 31.0972 315.467C9.73676 304.819 -6.76582 285.377 -13.9658 262.376C-17.5403 250.958 -18.8294 242.169 -19.859 222.187C-20.7435 205.025 -19.9628 174.835 -18.0003 150.325C-17.1485 139.683 -17.0923 128.27 -17.6618 80.8391C-18.0359 49.6249 -18.53 23.1728 -18.7597 22.0567C-19.2603 19.6185 -19.7281 19.7109 -27.817 23.8546L-33.3837 26.7061L-33.2422 87.2428C-33.1519 126.061 -33.4207 155.609 -33.9917 169.607C-35.3569 203.114 -34.2412 235.921 -31.0885 254.966C-27.8433 274.564 -19.0484 291.913 -4.54524 307.321C4.40109 316.826 12.3285 322.945 22.8598 328.477C36.2864 335.53 47.3168 338.76 63.1062 340.264C82.9208 342.151 104.89 337.055 123.319 326.299C150.237 310.588 169.357 283.005 174.832 251.989C176.611 241.913 176.456 224.907 174.492 214.701C167.834 180.096 146.624 151.937 115.854 136.852C106.496 132.263 98.9157 129.905 84.9594 127.24L74.8064 125.302L74.8377 109.255C74.8825 85.7948 75.3084 84.4437 82.588 84.6496C87.7232 84.7951 107.454 89.2226 116.336 92.2218C155.106 105.314 193.489 142.824 207.436 181.249C214.586 200.948 218.015 225.447 216.344 244.896C211.74 298.472 180.743 344.488 133.467 367.926C112.879 378.132 94.4326 382.483 71.5719 382.521C48.96 382.559 29.3466 377.976 9.03496 367.907C-6.81418 360.051 -19.8504 350.263 -33.2998 336.123C-48.4137 320.233 -56.9192 306.785 -65.6068 285.041C-69.4542 275.412 -70.685 270.552 -71.6229 261.285C-72.5522 252.1 -73.569 202.41 -74.5254 119.438C-74.9363 83.8419 -75.3409 54.6563 -75.4255 54.5813C-75.8394 54.2154 -102.888 83.8237 -107.113 89.2677C-131.75 121.011 -146.138 154.067 -153.007 194.709C-156.027 212.573 -156.922 242.207 -154.951 259.102C-148.643 313.202 -126.171 360.88 -89.1003 398.814C-60.3038 428.281 -24.6301 448.979 15.7166 459.631C27.7987 462.82 34.053 463.763 49.0887 464.662C63.3437 465.514 97.0059 464.663 109.156 463.142C138.72 459.443 183.058 439.403 211.413 416.923C251.511 385.134 279.642 340.246 292.646 287.301C296.74 270.63 299.994 254.8 300 233.636C300.006 212.987 296.687 196.212 293.03 181.249C282.705 139.006 262.575 101.576 233.879 71.2638C203.433 39.103 169.567 19.262 126.102 8.11726C101.619 1.83949 74.8725 -1.19171 58.3081 0.433027Z" fill="black" fill-opacity="0.03"/>
<path fill-rule="evenodd" clip-rule="evenodd" d="M1844.68 639.405C1836.3 640.227 1819.26 642.753 1813.91 643.97L1809.31 645.015L1809.75 711.13C1810.68 850.036 1810.9 863.806 1812.28 869.474C1817.23 889.806 1835.18 904.188 1855.6 904.188C1867.5 904.188 1876.2 901.158 1885.11 893.922C1896.44 884.716 1902.07 872.681 1902.07 857.668C1902.07 849.414 1900.83 843.775 1897.39 836.462C1891.35 823.619 1881.41 815.766 1865.95 811.624L1860.13 810.063V795.618C1860.13 780.297 1860.77 774.374 1862.59 772.99C1864.39 771.627 1867.47 771.98 1876.21 774.551C1893.17 779.543 1904.62 786.22 1915.76 797.619C1931.79 814.009 1940.03 834.369 1940.03 857.563C1940.03 883.602 1929.84 905.808 1910.05 922.874C1903.76 928.306 1898.35 931.675 1890.09 935.314C1876.42 941.335 1868.35 943.142 1855.47 943.067C1840.57 942.98 1833.49 941.23 1819.2 934.115C1799.2 924.153 1783.74 905.965 1777 884.449C1773.65 873.767 1772.45 865.545 1771.48 846.853C1770.65 830.798 1771.39 802.556 1773.22 779.627C1774.02 769.672 1774.07 758.995 1773.54 714.624C1773.19 685.423 1772.73 660.678 1772.51 659.634C1772.04 657.353 1771.61 657.439 1764.03 661.316L1758.82 663.983L1758.95 720.614C1759.04 756.928 1758.78 784.57 1758.25 797.664C1756.97 829.01 1758.02 859.7 1760.97 877.516C1764.01 895.851 1772.24 912.08 1785.82 926.494C1794.2 935.386 1801.62 941.11 1811.48 946.285C1824.06 952.883 1834.39 955.905 1849.17 957.311C1867.73 959.077 1888.3 954.31 1905.56 944.248C1930.76 929.55 1948.67 903.747 1953.79 874.732C1955.46 865.306 1955.31 849.397 1953.47 839.849C1947.24 807.477 1927.38 781.135 1898.57 767.022C1889.8 762.73 1882.7 760.524 1869.64 758.031L1860.13 756.218L1860.16 741.206C1860.2 719.26 1860.6 717.996 1867.41 718.188C1872.22 718.324 1890.7 722.466 1899.02 725.272C1935.32 737.519 1971.26 772.609 1984.32 808.555C1991.02 826.983 1994.23 849.902 1992.66 868.096C1988.35 918.216 1959.33 961.263 1915.06 983.188C1895.78 992.737 1878.51 996.806 1857.1 996.843C1835.93 996.878 1817.56 992.59 1798.54 983.171C1783.7 975.822 1771.49 966.665 1758.9 953.437C1744.74 938.572 1736.78 925.992 1728.64 905.651C1725.04 896.644 1723.89 892.097 1723.01 883.428C1722.14 874.836 1721.19 828.351 1720.29 750.732C1719.91 717.433 1719.53 690.13 1719.45 690.06C1719.06 689.718 1693.73 717.416 1689.78 722.508C1666.71 752.204 1653.23 783.127 1646.8 821.147C1643.97 837.859 1643.14 865.581 1644.98 881.386C1650.89 931.995 1671.93 976.598 1706.65 1012.08C1733.61 1039.65 1767.02 1059.01 1804.8 1068.98C1816.11 1071.96 1821.97 1072.84 1836.05 1073.68C1849.39 1074.48 1880.92 1073.68 1892.29 1072.26C1919.98 1068.8 1961.49 1050.05 1988.05 1029.02C2025.59 999.287 2051.94 957.295 2064.11 907.766C2067.95 892.17 2070.99 877.361 2071 857.563C2071.01 838.246 2067.9 822.554 2064.47 808.555C2054.81 769.038 2035.96 734.023 2009.08 705.666C1980.57 675.58 1948.86 657.019 1908.16 646.594C1885.24 640.721 1860.19 637.885 1844.68 639.405Z" fill="black" fill-opacity="0.03"/>
</svg>
