<svg width="1920" height="1524" viewBox="0 0 1920 1524" fill="none" xmlns="http://www.w3.org/2000/svg">
<g filter="url(#filter0_f_4015_1156)">
<circle cx="2147" cy="583" r="341" fill="#3B404D"/>
</g>
<g filter="url(#filter1_f_4015_1156)">
<circle cx="-96" cy="411" r="361" fill="#3B404D"/>
</g>
<path fill-rule="evenodd" clip-rule="evenodd" d="M29.8564 -26.5055C19.6299 -25.5026 -1.15282 -22.4184 -7.68369 -20.9336L-13.2998 -19.6574L-12.7604 61.0482C-11.6263 230.609 -11.3582 247.419 -9.67406 254.338C-3.63551 279.157 18.2634 296.712 43.1837 296.712C57.6964 296.712 68.321 293.014 79.19 284.18C93.017 272.943 99.8875 258.252 99.8875 239.925C99.8875 229.85 98.3675 222.967 94.1723 214.04C86.8038 198.362 74.6755 188.776 55.8149 183.721L48.7064 181.815V164.182C48.7064 145.48 49.4937 138.25 51.7139 136.561C53.9017 134.896 57.6664 135.328 68.325 138.466C89.0241 144.56 102.996 152.71 116.59 166.624C136.139 186.631 146.194 211.485 146.194 239.797C146.194 271.583 133.76 298.69 109.622 319.522C101.94 326.153 95.3421 330.266 85.2643 334.708C68.5866 342.057 58.7395 344.263 43.0197 344.171C24.8447 344.065 16.2 341.93 -1.23326 333.243C-25.6385 321.084 -44.4934 298.882 -52.7197 272.617C-56.8037 259.578 -58.2766 249.541 -59.4529 226.723C-60.4635 207.126 -59.5715 172.651 -57.3293 144.662C-56.356 132.509 -56.2919 119.476 -56.9426 65.3131C-57.3699 29.6684 -57.9345 -0.538111 -58.1969 -1.81268C-58.7689 -4.59694 -59.3034 -4.49142 -68.5453 0.240423L-74.9055 3.49663L-74.7439 72.6256C-74.6407 116.954 -74.9478 150.696 -75.6001 166.68C-77.1599 204.943 -75.8853 242.406 -72.2831 264.154C-68.5753 286.535 -58.5268 306.346 -41.9563 323.941C-31.7347 334.795 -22.6773 341.782 -10.6449 348.1C4.69562 356.153 17.2983 359.842 35.3384 361.559C57.9775 363.714 83.0782 357.896 104.134 345.613C134.889 327.672 156.735 296.174 162.99 260.755C165.023 249.249 164.845 229.829 162.602 218.175C154.994 178.658 130.761 146.502 95.6053 129.276C84.9134 124.036 76.2524 121.343 60.3066 118.3L48.7064 116.086L48.7422 97.7621C48.7934 70.9722 49.28 69.4292 57.5973 69.6644C63.4644 69.8305 86.0077 74.8864 96.1561 78.3113C140.452 93.2613 184.307 136.095 200.242 179.974C208.411 202.469 212.328 230.446 210.419 252.655C205.16 313.836 169.744 366.383 115.729 393.147C92.2063 404.803 71.1302 409.771 45.0108 409.815C19.1758 409.858 -3.23337 404.624 -26.4403 393.126C-44.5487 384.155 -59.4432 372.978 -74.8097 356.83C-92.078 338.685 -101.796 323.329 -111.722 298.498C-116.118 287.503 -117.524 281.953 -118.595 271.371C-119.657 260.882 -120.819 204.139 -121.912 109.39C-122.381 68.7421 -122.843 35.4139 -122.94 35.3284C-123.413 34.9104 -154.317 68.7213 -159.145 74.9379C-187.293 111.187 -203.732 148.934 -211.581 195.345C-215.031 215.745 -216.053 249.585 -213.802 268.878C-206.594 330.656 -180.919 385.102 -138.564 428.42C-105.663 462.069 -64.9041 485.705 -18.8062 497.869C-5.00197 501.51 2.14388 502.587 19.3228 503.614C35.6098 504.587 74.0703 503.615 87.9526 501.878C121.73 497.654 172.388 474.77 204.786 449.099C250.599 412.798 282.74 361.539 297.597 301.079C302.275 282.042 305.993 263.965 306 239.797C306.007 216.218 302.214 197.062 298.036 179.974C286.24 131.736 263.24 88.993 230.454 54.3787C195.668 17.6531 156.975 -5.00407 107.314 -17.7306C79.3411 -24.8994 48.782 -28.3609 29.8564 -26.5055Z" fill="white" fill-opacity="0.05"/>
<path fill-rule="evenodd" clip-rule="evenodd" d="M1845.68 500.405C1837.3 501.227 1820.26 503.753 1814.91 504.97L1810.31 506.015L1810.75 572.13C1811.68 711.036 1811.9 724.806 1813.28 730.474C1818.23 750.806 1836.18 765.188 1856.6 765.188C1868.5 765.188 1877.2 762.158 1886.11 754.922C1897.44 745.716 1903.07 733.681 1903.07 718.668C1903.07 710.414 1901.83 704.775 1898.39 697.462C1892.35 684.619 1882.41 676.766 1866.95 672.624L1861.13 671.063V656.618C1861.13 641.297 1861.77 635.374 1863.59 633.99C1865.39 632.627 1868.47 632.98 1877.21 635.551C1894.17 640.543 1905.62 647.22 1916.76 658.619C1932.79 675.009 1941.03 695.369 1941.03 718.563C1941.03 744.602 1930.84 766.808 1911.05 783.874C1904.76 789.306 1899.35 792.675 1891.09 796.314C1877.42 802.335 1869.35 804.142 1856.47 804.067C1841.57 803.98 1834.49 802.23 1820.2 795.115C1800.2 785.153 1784.74 766.965 1778 745.449C1774.65 734.767 1773.45 726.545 1772.48 707.853C1771.65 691.798 1772.39 663.556 1774.22 640.627C1775.02 630.672 1775.07 619.995 1774.54 575.624C1774.19 546.423 1773.73 521.678 1773.51 520.634C1773.04 518.353 1772.61 518.439 1765.03 522.316L1759.82 524.983L1759.95 581.614C1760.04 617.928 1759.78 645.57 1759.25 658.664C1757.97 690.01 1759.02 720.7 1761.97 738.516C1765.01 756.851 1773.24 773.08 1786.82 787.494C1795.2 796.386 1802.62 802.11 1812.48 807.285C1825.06 813.883 1835.39 816.905 1850.17 818.311C1868.73 820.077 1889.3 815.31 1906.56 805.248C1931.76 790.55 1949.67 764.747 1954.79 735.732C1956.46 726.306 1956.31 710.397 1954.47 700.849C1948.24 668.477 1928.38 642.135 1899.57 628.022C1890.8 623.73 1883.7 621.524 1870.64 619.031L1861.13 617.218L1861.16 602.206C1861.2 580.26 1861.6 578.996 1868.41 579.188C1873.22 579.324 1891.7 583.466 1900.02 586.272C1936.32 598.519 1972.26 633.609 1985.32 669.555C1992.02 687.983 1995.23 710.902 1993.66 729.096C1989.35 779.216 1960.33 822.263 1916.06 844.188C1896.78 853.737 1879.51 857.806 1858.1 857.843C1836.93 857.878 1818.56 853.59 1799.54 844.171C1784.7 836.822 1772.49 827.665 1759.9 814.437C1745.74 799.572 1737.78 786.992 1729.64 766.651C1726.04 757.644 1724.89 753.097 1724.01 744.428C1723.14 735.836 1722.19 689.351 1721.29 611.732C1720.91 578.433 1720.53 551.13 1720.45 551.06C1720.06 550.718 1694.73 578.416 1690.78 583.508C1667.71 613.204 1654.23 644.127 1647.8 682.147C1644.97 698.859 1644.14 726.581 1645.98 742.386C1651.89 792.995 1672.93 837.598 1707.65 873.084C1734.61 900.65 1768.02 920.013 1805.8 929.977C1817.11 932.96 1822.97 933.842 1837.05 934.684C1850.39 935.481 1881.92 934.684 1893.29 933.262C1920.98 929.801 1962.49 911.055 1989.05 890.025C2026.59 860.287 2052.94 818.295 2065.11 768.766C2068.95 753.17 2071.99 738.361 2072 718.563C2072.01 699.246 2068.9 683.554 2065.47 669.555C2055.81 630.038 2036.96 595.023 2010.08 566.666C1981.57 536.58 1949.86 518.019 1909.16 507.594C1886.24 501.721 1861.19 498.885 1845.68 500.405Z" fill="white" fill-opacity="0.05"/>
<defs>
<filter id="filter0_f_4015_1156" x="1206" y="-358" width="1882" height="1882" filterUnits="userSpaceOnUse" color-interpolation-filters="sRGB">
<feFlood flood-opacity="0" result="BackgroundImageFix"/>
<feBlend mode="normal" in="SourceGraphic" in2="BackgroundImageFix" result="shape"/>
<feGaussianBlur stdDeviation="300" result="effect1_foregroundBlur_4015_1156"/>
</filter>
<filter id="filter1_f_4015_1156" x="-1057" y="-550" width="1922" height="1922" filterUnits="userSpaceOnUse" color-interpolation-filters="sRGB">
<feFlood flood-opacity="0" result="BackgroundImageFix"/>
<feBlend mode="normal" in="SourceGraphic" in2="BackgroundImageFix" result="shape"/>
<feGaussianBlur stdDeviation="300" result="effect1_foregroundBlur_4015_1156"/>
</filter>
</defs>
</svg>
