<svg width="17" height="20" viewBox="0 0 17 20" fill="none" xmlns="http://www.w3.org/2000/svg">
<path d="M4.27273 9.29537H12.7273C12.9141 9.29537 13.0933 9.22114 13.2255 9.08901C13.3576 8.95688 13.4318 8.77768 13.4318 8.59082V4.36355C13.4318 4.17669 13.3576 3.99749 13.2255 3.86536C13.0933 3.73323 12.9141 3.659 12.7273 3.659H4.27273C4.08587 3.659 3.90667 3.73323 3.77454 3.86536C3.64241 3.99749 3.56818 4.17669 3.56818 4.36355V8.59082C3.56818 8.77768 3.64241 8.95688 3.77454 9.08901C3.90667 9.22114 4.08587 9.29537 4.27273 9.29537ZM4.97727 5.06809H12.0227V7.88627H4.97727V5.06809ZM14.8409 0.84082H2.15909C1.78538 0.84082 1.42697 0.989278 1.16271 1.25353C0.898457 1.51779 0.75 1.8762 0.75 2.24991V17.7499C0.75 18.1236 0.898457 18.482 1.16271 18.7463C1.42697 19.0105 1.78538 19.159 2.15909 19.159H14.8409C15.2146 19.159 15.573 19.0105 15.8373 18.7463C16.1015 18.482 16.25 18.1236 16.25 17.7499V2.24991C16.25 1.8762 16.1015 1.51779 15.8373 1.25353C15.573 0.989278 15.2146 0.84082 14.8409 0.84082ZM14.8409 17.7499H2.15909V2.24991H14.8409V17.7499ZM6.03409 11.7613C6.03409 11.9703 5.97211 12.1746 5.85599 12.3484C5.73986 12.5222 5.57481 12.6577 5.3817 12.7376C5.18859 12.8176 4.9761 12.8386 4.7711 12.7978C4.56609 12.757 4.37779 12.6564 4.22999 12.5086C4.08219 12.3608 3.98154 12.1725 3.94076 11.9674C3.89998 11.7624 3.92091 11.55 4.0009 11.3568C4.08089 11.1637 4.21634 10.9987 4.39014 10.8826C4.56393 10.7664 4.76825 10.7045 4.97727 10.7045C5.25756 10.7045 5.52636 10.8158 5.72456 11.014C5.92275 11.2122 6.03409 11.481 6.03409 11.7613ZM9.55682 11.7613C9.55682 11.9703 9.49484 12.1746 9.37871 12.3484C9.26259 12.5222 9.09753 12.6577 8.90443 12.7376C8.71132 12.8176 8.49883 12.8386 8.29382 12.7978C8.08882 12.757 7.90052 12.6564 7.75272 12.5086C7.60492 12.3608 7.50427 12.1725 7.46349 11.9674C7.42271 11.7624 7.44364 11.55 7.52363 11.3568C7.60362 11.1637 7.73907 10.9987 7.91286 10.8826C8.08666 10.7664 8.29098 10.7045 8.5 10.7045C8.78029 10.7045 9.04909 10.8158 9.24728 11.014C9.44547 11.2122 9.55682 11.481 9.55682 11.7613ZM13.0795 11.7613C13.0795 11.9703 13.0176 12.1746 12.9014 12.3484C12.7853 12.5222 12.6203 12.6577 12.4272 12.7376C12.234 12.8176 12.0216 12.8386 11.8166 12.7978C11.6115 12.757 11.4232 12.6564 11.2754 12.5086C11.1276 12.3608 11.027 12.1725 10.9862 11.9674C10.9454 11.7624 10.9664 11.55 11.0464 11.3568C11.1263 11.1637 11.2618 10.9987 11.4356 10.8826C11.6094 10.7664 11.8137 10.7045 12.0227 10.7045C12.303 10.7045 12.5718 10.8158 12.77 11.014C12.9682 11.2122 13.0795 11.481 13.0795 11.7613ZM6.03409 15.284C6.03409 15.493 5.97211 15.6973 5.85599 15.8711C5.73986 16.0449 5.57481 16.1804 5.3817 16.2604C5.18859 16.3404 4.9761 16.3613 4.7711 16.3205C4.56609 16.2797 4.37779 16.1791 4.22999 16.0313C4.08219 15.8835 3.98154 15.6952 3.94076 15.4902C3.89998 15.2852 3.92091 15.0727 4.0009 14.8796C4.08089 14.6865 4.21634 14.5214 4.39014 14.4053C4.56393 14.2892 4.76825 14.2272 4.97727 14.2272C5.25756 14.2272 5.52636 14.3385 5.72456 14.5367C5.92275 14.7349 6.03409 15.0037 6.03409 15.284ZM9.55682 15.284C9.55682 15.493 9.49484 15.6973 9.37871 15.8711C9.26259 16.0449 9.09753 16.1804 8.90443 16.2604C8.71132 16.3404 8.49883 16.3613 8.29382 16.3205C8.08882 16.2797 7.90052 16.1791 7.75272 16.0313C7.60492 15.8835 7.50427 15.6952 7.46349 15.4902C7.42271 15.2852 7.44364 15.0727 7.52363 14.8796C7.60362 14.6865 7.73907 14.5214 7.91286 14.4053C8.08666 14.2892 8.29098 14.2272 8.5 14.2272C8.78029 14.2272 9.04909 14.3385 9.24728 14.5367C9.44547 14.7349 9.55682 15.0037 9.55682 15.284ZM13.0795 15.284C13.0795 15.493 13.0176 15.6973 12.9014 15.8711C12.7853 16.0449 12.6203 16.1804 12.4272 16.2604C12.234 16.3404 12.0216 16.3613 11.8166 16.3205C11.6115 16.2797 11.4232 16.1791 11.2754 16.0313C11.1276 15.8835 11.027 15.6952 10.9862 15.4902C10.9454 15.2852 10.9664 15.0727 11.0464 14.8796C11.1263 14.6865 11.2618 14.5214 11.4356 14.4053C11.6094 14.2892 11.8137 14.2272 12.0227 14.2272C12.303 14.2272 12.5718 14.3385 12.77 14.5367C12.9682 14.7349 13.0795 15.0037 13.0795 15.284Z" fill="white"/>
</svg>
